<svg width="897" height="85" viewBox="0 0 897 85" fill="none" xmlns="http://www.w3.org/2000/svg">
<path d="M597.723 35.4869C598.175 35.1704 598.799 35.2806 599.116 35.7331C599.432 36.1857 599.322 36.8092 598.869 37.1257L597.723 35.4869ZM298.703 36.3063C299.289 35.4962 299.289 35.4962 299.289 35.4962C299.289 35.4962 299.289 35.4962 299.289 35.4962C299.289 35.4961 299.289 35.4961 299.289 35.4962C299.289 35.4962 299.289 35.4962 299.289 35.4963C299.289 35.4964 299.29 35.4967 299.29 35.497C299.291 35.4978 299.293 35.499 299.295 35.5007C299.3 35.5042 299.308 35.5095 299.318 35.5167C299.338 35.531 299.368 35.5529 299.409 35.5821C299.491 35.6404 299.615 35.7279 299.78 35.843C300.11 36.0732 300.604 36.4139 301.256 36.8524L300.141 38.5125C299.478 38.0671 298.974 37.7197 298.635 37.4828C298.465 37.3644 298.337 37.2736 298.25 37.212C298.207 37.1812 298.174 37.1577 298.152 37.1418C298.141 37.1338 298.132 37.1276 298.126 37.1234C298.123 37.1213 298.121 37.1197 298.119 37.1185C298.119 37.1179 298.118 37.1175 298.118 37.1171C298.117 37.117 298.117 37.1168 298.117 37.1167C298.117 37.1166 298.117 37.1166 298.117 37.1166C298.117 37.1165 298.117 37.1165 298.117 37.1165C298.117 37.1165 298.117 37.1165 298.703 36.3063ZM305.425 39.5572C306.665 40.338 308.086 41.2129 309.68 42.1656L308.654 43.8823C307.046 42.9215 305.612 42.0386 304.359 41.25L305.425 39.5572ZM313.971 44.672C315.324 45.4444 316.765 46.2502 318.289 47.0833L317.33 48.8382C315.794 47.9991 314.343 47.1873 312.98 46.4089L313.971 44.672ZM322.631 49.4067C324.045 50.1477 325.518 50.9041 327.047 51.6722L326.149 53.4594C324.61 52.6861 323.127 51.9245 321.703 51.1782L322.631 49.4067ZM331.549 53.8858C332.995 54.5814 334.484 55.2834 336.014 55.9891L335.176 57.8053C333.636 57.0949 332.137 56.3883 330.682 55.688L331.549 53.8858ZM340.536 58.0294C342.036 58.6917 343.572 59.355 345.142 60.0174L344.365 61.8601C342.784 61.1934 341.238 60.5257 339.728 59.8591L340.536 58.0294ZM349.687 61.8915C351.213 62.5064 352.768 63.1186 354.352 63.7266L353.635 65.5937C352.041 64.9818 350.475 64.3655 348.939 63.7466L349.687 61.8915ZM358.967 65.4555C360.511 66.0197 362.08 66.5787 363.673 67.1309L363.018 69.0206C361.414 68.4647 359.835 67.902 358.281 67.3341L358.967 65.4555ZM368.358 68.7115C369.921 69.2247 371.505 69.7305 373.111 70.2277L372.519 72.1381C370.903 71.6376 369.308 71.1284 367.734 70.6118L368.358 68.7115ZM377.848 71.6513C379.431 72.1124 381.032 72.5645 382.652 73.0064L382.125 74.9359C380.495 74.4909 378.882 74.0358 377.289 73.5715L377.848 71.6513ZM387.43 74.2663C389.033 74.674 390.651 75.0712 392.286 75.4569L391.827 77.4035C390.181 77.0151 388.551 76.6151 386.937 76.2045L387.43 74.2663ZM397.097 76.5473C398.716 76.8993 400.349 77.2394 401.997 77.5669L401.607 79.5285C399.948 79.1987 398.302 78.8561 396.672 78.5016L397.097 76.5473ZM406.84 78.4843C408.465 78.777 410.103 79.0569 411.755 79.3232L411.436 81.2977C409.773 81.0295 408.122 80.7475 406.486 80.4526L406.84 78.4843ZM416.65 80.0667C418.279 80.2988 419.92 80.5172 421.573 80.7212L421.328 82.7061C419.663 82.5006 418.009 82.2805 416.368 82.0467L416.65 80.0667ZM426.517 81.2842C428.148 81.4542 429.79 81.6098 431.441 81.7503L431.272 83.7431C429.607 83.6015 427.953 83.4447 426.31 83.2734L426.517 81.2842ZM436.427 82.1258C438.058 82.2328 439.699 82.3246 441.349 82.4008L441.257 84.3986C439.594 84.3219 437.94 84.2293 436.296 84.1216L436.427 82.1258ZM446.321 82.5812C447.967 82.6247 449.621 82.6522 451.284 82.6631L451.271 84.663C449.595 84.652 447.927 84.6243 446.269 84.5805L446.321 82.5812ZM456.235 82.6463C457.894 82.6241 459.56 82.5851 461.234 82.5288L461.301 84.5276C459.613 84.5845 457.934 84.6238 456.262 84.6461L456.235 82.6463ZM466.155 82.3134C467.802 82.2247 469.457 82.1189 471.118 81.9954L471.266 83.9898C469.591 84.1144 467.923 84.2211 466.263 84.3105L466.155 82.3134ZM476.069 81.576C477.701 81.4208 479.34 81.2482 480.985 81.0578L481.215 83.0445C479.557 83.2366 477.904 83.4105 476.258 83.567L476.069 81.576ZM485.937 80.4323C487.56 80.21 489.189 79.97 490.824 79.7118L491.136 81.6873C489.488 81.9477 487.845 82.1896 486.208 82.4138L485.937 80.4323ZM495.713 78.8875C497.346 78.5949 498.983 78.2838 500.625 77.9539L501.019 79.9147C499.363 80.2474 497.712 80.561 496.066 80.8561L495.713 78.8875ZM505.44 76.9349C507.049 76.577 508.662 76.2007 510.28 75.8055L510.755 77.7484C509.124 78.1468 507.496 78.5263 505.874 78.8872L505.44 76.9349ZM515.108 74.573C516.688 74.1523 518.271 73.7134 519.858 73.2559L520.412 75.1776C518.812 75.6389 517.215 76.0814 515.623 76.5056L515.108 74.573ZM524.628 71.827C526.202 71.3378 527.78 70.8301 529.36 70.3034L529.993 72.2008C528.399 72.7318 526.809 73.2437 525.222 73.7369L524.628 71.827ZM534.024 68.697C535.581 68.1431 537.141 67.5704 538.704 66.9788L539.412 68.8492C537.837 69.4456 536.264 70.0229 534.694 70.5814L534.024 68.697ZM543.333 65.1734C544.85 64.5643 546.369 63.937 547.89 63.2912L548.672 65.1322C547.138 65.7831 545.607 66.4154 544.078 67.0294L543.333 65.1734ZM552.461 61.2979C553.967 60.6238 555.474 59.9314 556.983 59.2203L557.836 61.0295C556.315 61.7461 554.796 62.4439 553.279 63.1232L552.461 61.2979ZM561.418 57.0793C562.897 56.3476 564.379 55.5977 565.862 54.8292L566.782 56.605C565.288 57.3792 563.795 58.1348 562.304 58.8721L561.418 57.0793ZM570.28 52.4874C571.71 51.7119 573.142 50.9189 574.575 50.1081L575.56 51.8489C574.117 52.6655 572.674 53.4644 571.233 54.2457L570.28 52.4874ZM578.878 47.6225C580.313 46.7761 581.75 45.9117 583.187 45.029L584.234 46.7333C582.786 47.6222 581.34 48.4928 579.894 49.3453L578.878 47.6225ZM587.344 42.4263C588.726 41.5443 590.109 40.6452 591.493 39.7288L592.597 41.3962C591.204 42.3189 589.812 43.2242 588.42 44.1123L587.344 42.4263ZM595.645 36.9272C596.338 36.4515 597.03 35.9714 597.723 35.4869L598.869 37.1257C598.172 37.6135 597.475 38.0968 596.778 38.5757L595.645 36.9272Z" fill="#C4C4C4"/>
<path d="M300.122 38.0495C300.609 38.3097 301.215 38.1258 301.475 37.6386C301.736 37.1515 301.552 36.5456 301.064 36.2854L300.122 38.0495ZM1 37.1674C1.48367 38.0427 1.48365 38.0427 1.48363 38.0427C1.48363 38.0427 1.48361 38.0427 1.4836 38.0427C1.48359 38.0427 1.48359 38.0427 1.4836 38.0427C1.48362 38.0427 1.48369 38.0427 1.4838 38.0426C1.48401 38.0425 1.48441 38.0423 1.48499 38.042C1.48614 38.0413 1.488 38.0403 1.49058 38.0389C1.49573 38.0361 1.50372 38.0317 1.51455 38.0257C1.53621 38.0139 1.5692 37.9959 1.61343 37.9719C1.70189 37.9239 1.8353 37.8519 2.01288 37.7574C2.36803 37.5683 2.89985 37.2887 3.6021 36.9295L2.69122 35.1489C1.97898 35.5133 1.43747 35.7979 1.07291 35.992C0.890636 36.0891 0.752596 36.1635 0.659572 36.214C0.61306 36.2392 0.577802 36.2585 0.553895 36.2716C0.541942 36.2781 0.532826 36.2831 0.526561 36.2866C0.523428 36.2883 0.521007 36.2896 0.519301 36.2906C0.518448 36.291 0.517773 36.2914 0.517277 36.2917C0.517029 36.2918 0.516826 36.2919 0.516667 36.292C0.516588 36.292 0.51652 36.2921 0.516463 36.2921C0.516434 36.2921 0.5164 36.2921 0.516386 36.2922C0.516354 36.2922 0.516325 36.2922 1 37.1674ZM8.14385 34.6901C9.45487 34.0644 10.9508 33.3662 12.624 32.6087L11.7991 30.7867C10.1133 31.5499 8.60518 32.2538 7.28236 32.8852L8.14385 34.6901ZM17.1986 30.5876C18.6504 29.9614 20.1955 29.3088 21.8306 28.6353L21.0689 26.786C19.4234 27.4638 17.8682 28.1207 16.4065 28.7512L17.1986 30.5876ZM26.4976 26.7558C27.9785 26.1726 29.5188 25.5785 31.1168 24.9764L30.4115 23.1049C28.8043 23.7105 27.2548 24.3082 25.7648 24.8948L26.4976 26.7558ZM35.8076 23.2477C37.3526 22.691 38.9435 22.13 40.579 21.5669L39.9281 19.6759C38.2833 20.242 36.6834 20.8062 35.1295 21.3662L35.8076 23.2477ZM45.2804 19.985C46.8351 19.4737 48.4255 18.9625 50.0504 18.453L49.452 16.5447C47.8181 17.057 46.219 17.571 44.6556 18.085L45.2804 19.985ZM54.8607 16.9812C56.4235 16.5147 58.0152 16.051 59.6348 15.5915L59.0888 13.6674C57.4604 14.1295 55.8601 14.5957 54.2887 15.0647L54.8607 16.9812ZM64.514 14.2433C66.0864 13.8205 67.6828 13.4024 69.3027 12.9902L68.8094 11.052C67.1807 11.4665 65.5756 11.8868 63.9946 12.3119L64.514 14.2433ZM74.2102 11.7772C75.7992 11.3961 77.409 11.0212 79.0389 10.6535L78.5988 8.70256C76.96 9.07224 75.3414 9.44916 73.7437 9.83239L74.2102 11.7772ZM83.9743 9.57615C85.5765 9.23804 87.1968 8.90741 88.8346 8.58511L88.4485 6.62274C86.8016 6.94683 85.1724 7.27928 83.5614 7.61926L83.9743 9.57615ZM93.8005 7.64399C95.4125 7.35019 97.0404 7.06489 98.6838 6.78882L98.3525 4.81645C96.6999 5.09407 95.0629 5.38097 93.4419 5.6764L93.8005 7.64399ZM103.658 5.98933C105.285 5.73965 106.926 5.49939 108.581 5.26923L108.306 3.28829C106.641 3.51977 104.991 3.76139 103.355 4.01247L103.658 5.98933ZM113.558 4.61335C115.2 4.40894 116.854 4.21479 118.521 4.03153L118.303 2.0435C116.626 2.22782 114.962 2.42309 113.311 2.62868L113.558 4.61335ZM123.496 3.52111C125.152 3.36331 126.82 3.21654 128.499 3.08141L128.338 1.08785C126.649 1.22378 124.972 1.37141 123.306 1.53013L123.496 3.52111ZM133.466 2.71825C135.132 2.60873 136.809 2.51094 138.496 2.42544L138.395 0.428C136.698 0.514018 135.011 0.612389 133.335 0.722552L133.466 2.71825ZM143.463 2.21072C145.125 2.15131 146.795 2.10407 148.475 2.06949L148.434 0.069916C146.744 0.104699 145.063 0.152231 143.392 0.211993L143.463 2.21072ZM153.48 2.00462C155.135 1.99581 156.799 1.99954 158.47 2.01628L158.49 0.0163781C156.809 -0.000462532 155.135 -0.00421202 153.47 0.00464952L153.48 2.00462ZM163.508 2.106C165.156 2.14823 166.811 2.20332 168.473 2.27172L168.556 0.273413C166.883 0.204582 165.218 0.149145 163.559 0.106655L163.508 2.106ZM173.48 2.5172C175.139 2.61169 176.805 2.71966 178.477 2.84153L178.623 0.846818C176.94 0.724172 175.263 0.615523 173.593 0.520437L173.48 2.5172ZM183.447 3.24336C185.11 3.39111 186.778 3.55283 188.453 3.72891L188.662 1.73988C186.977 1.56266 185.297 1.39991 183.624 1.25121L183.447 3.24336ZM193.402 4.28952C195.049 4.48963 196.703 4.70386 198.361 4.93259L198.634 2.95135C196.965 2.72113 195.301 2.50551 193.643 2.3041L193.402 4.28952ZM203.336 5.66042C204.967 5.91271 206.603 6.17924 208.243 6.46037L208.581 4.48912C206.93 4.20615 205.284 3.93787 203.642 3.68393L203.336 5.66042ZM213.177 7.34789C214.811 7.65582 216.449 7.97844 218.091 8.3161L218.494 6.35708C216.841 6.01718 215.192 5.69243 213.547 5.38247L213.177 7.34789ZM222.962 9.35939C224.589 9.72201 226.22 10.0996 227.854 10.4925L228.322 8.54791C226.677 8.1524 225.035 7.7723 223.397 7.40728L222.962 9.35939ZM232.701 11.7002C234.304 12.1139 235.91 12.5425 237.52 12.9864L238.051 11.0584C236.431 10.6116 234.814 10.1801 233.2 9.76363L232.701 11.7002ZM242.356 14.364C243.943 14.8306 245.533 15.3121 247.125 15.809L247.721 13.8998C246.118 13.3996 244.518 12.9148 242.92 12.4452L242.356 14.364ZM251.878 17.3353C253.464 17.8594 255.053 18.3989 256.644 18.9541L257.303 17.0658C255.701 16.5069 254.102 15.9638 252.505 15.4362L251.878 17.3353ZM261.329 20.633C262.884 21.2047 264.442 21.7917 266 22.3942L266.721 20.5287C265.152 19.9223 263.585 19.3314 262.019 18.7558L261.329 20.633ZM270.682 24.2484C272.212 24.8694 273.745 25.5056 275.278 26.1571L276.06 24.3163C274.517 23.6605 272.974 23.0202 271.434 22.3952L270.682 24.2484ZM279.855 28.1457C281.381 28.824 282.909 29.5177 284.438 30.2271L285.28 28.4129C283.741 27.6989 282.203 27.0007 280.667 26.318L279.855 28.1457ZM288.942 32.3613C290.431 33.0815 291.921 33.8168 293.411 34.5674L294.311 32.7812C292.811 32.0258 291.312 31.2858 289.813 30.5609L288.942 32.3613ZM297.884 36.8655C298.63 37.2563 299.376 37.6509 300.122 38.0495L301.064 36.2854C300.314 35.8843 299.563 35.4872 298.812 35.0939L297.884 36.8655Z" fill="#C4C4C4"/>
<path d="M895.529 38.0495C896.016 38.3097 896.622 38.1258 896.882 37.6386C897.142 37.1515 896.958 36.5456 896.471 36.2854L895.529 38.0495ZM596.407 37.1674C596.89 38.0427 596.89 38.0427 596.89 38.0427C596.89 38.0427 596.89 38.0427 596.89 38.0427C596.89 38.0427 596.89 38.0427 596.89 38.0427C596.89 38.0427 596.89 38.0427 596.89 38.0426C596.891 38.0425 596.891 38.0423 596.892 38.042C596.893 38.0413 596.895 38.0403 596.897 38.0389C596.902 38.0361 596.91 38.0317 596.921 38.0257C596.943 38.0139 596.976 37.9959 597.02 37.9719C597.109 37.9239 597.242 37.8519 597.42 37.7574C597.775 37.5683 598.307 37.2887 599.009 36.9295L598.098 35.1489C597.386 35.5133 596.844 35.7979 596.48 35.992C596.297 36.0891 596.159 36.1635 596.066 36.214C596.02 36.2392 595.984 36.2585 595.961 36.2716C595.949 36.2781 595.94 36.2831 595.933 36.2866C595.93 36.2883 595.928 36.2896 595.926 36.2906C595.925 36.291 595.924 36.2914 595.924 36.2917C595.924 36.2918 595.924 36.2919 595.923 36.292C595.923 36.292 595.923 36.2921 595.923 36.2921C595.923 36.2921 595.923 36.2921 595.923 36.2922C595.923 36.2922 595.923 36.2922 596.407 37.1674ZM603.551 34.6901C604.862 34.0644 606.357 33.3662 608.031 32.6087L607.206 30.7867C605.52 31.5499 604.012 32.2538 602.689 32.8852L603.551 34.6901ZM612.605 30.5876C614.057 29.9614 615.602 29.3088 617.237 28.6353L616.476 26.786C614.83 27.4638 613.275 28.1207 611.813 28.7512L612.605 30.5876ZM621.904 26.7558C623.385 26.1726 624.926 25.5785 626.523 24.9764L625.818 23.1049C624.211 23.7105 622.661 24.3082 621.172 24.8948L621.904 26.7558ZM631.214 23.2477C632.759 22.691 634.35 22.13 635.986 21.5669L635.335 19.6759C633.69 20.242 632.09 20.8062 630.536 21.3662L631.214 23.2477ZM640.687 19.985C642.242 19.4737 643.832 18.9625 645.457 18.453L644.859 16.5447C643.225 17.057 641.626 17.571 640.062 18.085L640.687 19.985ZM650.267 16.9812C651.83 16.5147 653.422 16.051 655.041 15.5915L654.496 13.6674C652.867 14.1295 651.267 14.5957 649.695 15.0647L650.267 16.9812ZM659.921 14.2433C661.493 13.8205 663.09 13.4024 664.709 12.9902L664.216 11.052C662.587 11.4665 660.982 11.8868 659.401 12.3119L659.921 14.2433ZM669.617 11.7772C671.206 11.3961 672.816 11.0212 674.446 10.6535L674.006 8.70256C672.367 9.07224 670.748 9.44916 669.15 9.83239L669.617 11.7772ZM679.381 9.57615C680.983 9.23804 682.603 8.90741 684.241 8.58511L683.855 6.62274C682.208 6.94683 680.579 7.27928 678.968 7.61926L679.381 9.57615ZM689.207 7.64399C690.819 7.35019 692.447 7.06489 694.09 6.78882L693.759 4.81645C692.107 5.09407 690.47 5.38097 688.849 5.6764L689.207 7.64399ZM699.065 5.98933C700.692 5.73965 702.333 5.49939 703.988 5.26923L703.712 3.28829C702.048 3.51977 700.397 3.76139 698.761 4.01247L699.065 5.98933ZM708.964 4.61335C710.606 4.40894 712.261 4.21479 713.928 4.03153L713.709 2.0435C712.033 2.22782 710.369 2.42309 708.717 2.62868L708.964 4.61335ZM718.902 3.52111C720.559 3.36331 722.226 3.21654 723.905 3.08141L723.745 1.08785C722.056 1.22378 720.378 1.37141 718.713 1.53013L718.902 3.52111ZM728.873 2.71825C730.539 2.60873 732.216 2.51094 733.903 2.42544L733.802 0.428C732.105 0.514018 730.418 0.612389 728.742 0.722552L728.873 2.71825ZM738.87 2.21072C740.531 2.15131 742.202 2.10407 743.882 2.06949L743.841 0.069916C742.151 0.104699 740.47 0.152231 738.798 0.211993L738.87 2.21072ZM748.887 2.00462C750.542 1.99581 752.205 1.99954 753.877 2.01628L753.897 0.0163781C752.215 -0.000462532 750.542 -0.00421202 748.876 0.00464952L748.887 2.00462ZM758.915 2.106C760.563 2.14823 762.218 2.20332 763.88 2.27172L763.962 0.273413C762.29 0.204582 760.624 0.149145 758.966 0.106655L758.915 2.106ZM768.886 2.5172C770.546 2.61169 772.212 2.71966 773.884 2.84153L774.029 0.846818C772.346 0.724172 770.67 0.615523 769 0.520437L768.886 2.5172ZM778.854 3.24336C780.516 3.39111 782.185 3.55283 783.859 3.72891L784.069 1.73988C782.383 1.56266 780.704 1.39991 779.031 1.25121L778.854 3.24336ZM788.808 4.28952C790.456 4.48963 792.109 4.70386 793.768 4.93259L794.041 2.95135C792.372 2.72113 790.708 2.50551 789.049 2.3041L788.808 4.28952ZM798.743 5.66042C800.374 5.91271 802.01 6.17924 803.65 6.46037L803.988 4.48912C802.337 4.20615 800.69 3.93787 799.049 3.68393L798.743 5.66042ZM808.583 7.34789C810.217 7.65582 811.856 7.97844 813.498 8.3161L813.901 6.35708C812.248 6.01718 810.599 5.69243 808.954 5.38247L808.583 7.34789ZM818.369 9.35939C819.996 9.72201 821.627 10.0996 823.261 10.4925L823.729 8.54791C822.083 8.1524 820.442 7.7723 818.804 7.40728L818.369 9.35939ZM828.107 11.7002C829.711 12.1139 831.317 12.5425 832.926 12.9864L833.458 11.0584C831.838 10.6116 830.221 10.1801 828.607 9.76363L828.107 11.7002ZM837.763 14.364C839.35 14.8306 840.94 15.3121 842.532 15.809L843.128 13.8998C841.525 13.3996 839.924 12.9148 838.327 12.4452L837.763 14.364ZM847.284 17.3353C848.871 17.8594 850.459 18.3989 852.05 18.9541L852.709 17.0658C851.108 16.5069 849.509 15.9638 847.912 15.4362L847.284 17.3353ZM856.736 20.633C858.291 21.2047 859.848 21.7917 861.407 22.3942L862.128 20.5287C860.559 19.9223 858.992 19.3314 857.426 18.7558L856.736 20.633ZM866.089 24.2484C867.619 24.8694 869.151 25.5056 870.685 26.1571L871.467 24.3163C869.923 23.6605 868.381 23.0202 866.84 22.3952L866.089 24.2484ZM875.261 28.1457C876.788 28.824 878.316 29.5177 879.845 30.2271L880.687 28.4129C879.148 27.6989 877.61 27.0007 876.073 26.318L875.261 28.1457ZM884.349 32.3613C885.838 33.0815 887.327 33.8168 888.818 34.5674L889.717 32.7812C888.217 32.0258 886.718 31.2858 885.22 30.5609L884.349 32.3613ZM893.291 36.8655C894.037 37.2563 894.783 37.6509 895.529 38.0495L896.471 36.2854C895.72 35.8843 894.97 35.4872 894.219 35.0939L893.291 36.8655Z" fill="#C4C4C4"/>
</svg>
