<svg width="20" height="21" viewBox="0 0 20 21" fill="none" xmlns="http://www.w3.org/2000/svg">
<path d="M18.1818 0.287109H1.81818C0.813636 0.287109 0 1.10075 0 2.10529V18.4689C0 19.4735 0.813636 20.2871 1.81818 20.2871H10.9091V12.1053H8.18182V9.37802H10.9091V7.91347C10.9091 5.14075 12.26 3.92347 14.5645 3.92347C15.6682 3.92347 16.2518 4.00529 16.5282 4.04256V6.65075H14.9564C13.9782 6.65075 13.6364 7.16711 13.6364 8.21256V9.37802H16.5036L16.1145 12.1053H13.6364V20.2871H18.1818C19.1864 20.2871 20 19.4735 20 18.4689V2.10529C20 1.10075 19.1855 0.287109 18.1818 0.287109Z" fill="#0047AB"/>
</svg>
