<svg width="333" height="260" viewBox="0 0 333 260" fill="none" xmlns="http://www.w3.org/2000/svg">
<path d="M252.894 78.3555L252.868 78.3819C252.728 78.5338 252.58 78.6859 252.427 78.838L191.478 141.703L184.659 148.736C182.912 150.54 180.031 150.587 178.227 148.841L108.208 81.1984C108.056 81.0513 107.897 80.9042 107.752 80.757L107.725 80.7314C99.3689 72.5225 94.2432 61.0083 94.4899 48.2613C94.9361 25.0447 113.611 5.93364 136.81 4.92948C140.704 4.76168 144.495 5.09642 148.131 5.87603C159.532 8.333 169.319 15.1987 175.605 24.6247C177.425 27.3549 181.486 27.2917 183.216 24.5034C191.087 11.8125 205.198 3.37047 221.344 3.54594C244.564 3.79037 263.854 22.2801 265.059 45.4696C265.73 58.2016 260.977 69.8775 252.894 78.3555Z" fill="#CB2127"/>
<path d="M208.107 66.8178L196.188 67.0129C193.674 67.0541 191.602 65.0494 191.561 62.5353L191.366 50.6159C191.325 48.1018 189.254 46.0971 186.74 46.1383L174.82 46.3334C172.306 46.3745 170.301 48.4459 170.343 50.96L170.538 62.8794C170.579 65.3935 168.574 67.4649 166.06 67.506L154.141 67.7011C151.627 67.7423 149.622 69.8137 149.663 72.3277L149.858 84.2471C149.899 86.7612 151.971 88.7659 154.485 88.7248L166.404 88.5297C168.918 88.4885 170.99 90.4932 171.031 93.0073L171.226 104.927C171.267 107.441 173.338 109.445 175.852 109.404L187.772 109.209C190.286 109.168 192.291 107.097 192.25 104.583L192.054 92.6632C192.013 90.1491 194.018 88.0777 196.532 88.0366L208.451 87.8415C210.966 87.8004 212.97 85.729 212.929 83.2149L212.734 71.2955C212.693 68.7814 210.621 66.7767 208.107 66.8178Z" fill="#F2FBFF"/>
<path d="M311.861 148.648L244.52 233.863C239.858 239.77 233.354 243.935 226.055 245.711L143.463 265.799L133.399 267.878L99.6152 247.313L95.2928 236.477C95.2928 236.477 95.296 236.462 95.2962 236.436C95.6358 234.887 105.801 188.973 144.711 179.51C148.017 178.706 151.389 178.233 154.796 178.014C164.83 177.354 175.147 178.874 184.946 180.5L215.97 172.955C223.067 171.228 229.784 175.646 231.954 181.872C232.511 183.443 232.769 185.141 232.664 186.88L254.095 166.426L293.195 129.091C298.77 123.779 305.349 123.993 310.003 127.138C316.111 131.255 318.922 140.391 311.861 148.648Z" fill="#FED2A4"/>
<path d="M128.945 240.152L163.193 260.999L143.463 265.798L133.399 267.878L99.6152 247.312L95.2928 236.476C95.2928 236.476 95.296 236.462 95.2962 236.435C95.6358 234.886 105.801 188.973 144.712 179.509C148.017 178.705 151.389 178.233 154.796 178.013C136.994 186.005 126.625 202.047 120.963 214.516C116.734 223.824 120.208 234.834 128.945 240.152Z" fill="#FFBD86"/>
<path d="M310.003 127.138L238.291 195.511C233.366 200.913 230.502 202.345 223.559 204.155L163.995 218.642C161.272 219.304 158.528 217.629 157.865 214.905C157.203 212.181 158.872 209.439 161.596 208.777L221.159 194.29C224.793 193.406 227.379 190.307 227.593 186.587C227.733 184.136 229.669 182.521 231.954 181.871C232.511 183.443 232.77 185.14 232.664 186.88L254.095 166.426L293.195 129.091C298.77 123.779 305.349 123.993 310.003 127.138Z" fill="#FFBD86"/>
<path d="M155.314 296.885L163.549 283.357C164.856 281.209 164.175 278.408 162.027 277.1L81.3846 228.011C79.2365 226.704 76.4356 227.385 75.1287 229.533L66.8939 243.061L68.3417 253.579L144.16 299.731L155.314 296.885Z" fill="#FF8400"/>
<path d="M35.9253 269.052L53.4594 240.247C54.7746 238.087 57.5927 237.402 59.7529 238.718L168.625 305.043C170.784 306.358 171.468 309.175 170.153 311.334L152.619 340.138C151.304 342.299 148.486 342.984 146.326 341.668L37.4541 275.343C35.2949 274.028 34.6104 271.211 35.9253 269.052Z" fill="white"/>
<path d="M157.707 331.782L152.616 340.139C151.301 342.298 148.483 342.983 146.324 341.667L37.4553 275.344C35.2967 274.029 34.6118 271.213 35.9259 269.054L53.4581 240.244C54.7733 238.083 57.5913 237.398 59.7514 238.714L68.1067 243.804L63.8339 250.823C58.0038 260.401 61.0392 272.891 70.6148 278.725L157.707 331.782Z" fill="white"/>
</svg>
