<svg width="20" height="21" viewBox="0 0 20 21" fill="none" xmlns="http://www.w3.org/2000/svg">
<path d="M5.83171 0.287109C2.61587 0.287109 0 2.9054 0 6.12207V14.4554C0 17.6712 2.61829 20.2871 5.83496 20.2871H14.1683C17.3841 20.2871 20 17.6688 20 14.4521V6.11881C20 2.90298 17.3817 0.287109 14.165 0.287109H5.83171ZM15.8333 3.62044C16.2933 3.62044 16.6667 3.99378 16.6667 4.45378C16.6667 4.91378 16.2933 5.28711 15.8333 5.28711C15.3733 5.28711 15 4.91378 15 4.45378C15 3.99378 15.3733 3.62044 15.8333 3.62044ZM10 5.28711C12.7575 5.28711 15 7.52961 15 10.2871C15 13.0446 12.7575 15.2871 10 15.2871C7.2425 15.2871 5 13.0446 5 10.2871C5 7.52961 7.2425 5.28711 10 5.28711ZM10 6.95378C9.11594 6.95378 8.2681 7.30497 7.64298 7.93009C7.01786 8.55521 6.66667 9.40305 6.66667 10.2871C6.66667 11.1712 7.01786 12.019 7.64298 12.6441C8.2681 13.2693 9.11594 13.6204 10 13.6204C10.8841 13.6204 11.7319 13.2693 12.357 12.6441C12.9821 12.019 13.3333 11.1712 13.3333 10.2871C13.3333 9.40305 12.9821 8.55521 12.357 7.93009C11.7319 7.30497 10.8841 6.95378 10 6.95378Z" fill="#0047AB"/>
</svg>
