<svg width="20" height="21" viewBox="0 0 20 21" fill="none" xmlns="http://www.w3.org/2000/svg">
<path d="M18.1818 0.287109H1.81818C0.813636 0.287109 0 1.10075 0 2.10529V18.4689C0 19.4735 0.813636 20.2871 1.81818 20.2871H18.1818C19.1864 20.2871 20 19.4735 20 18.4689V2.10529C20 1.10075 19.1864 0.287109 18.1818 0.287109ZM6.32182 16.6507H3.64V8.02166H6.32182V16.6507ZM4.95364 6.78802C4.08909 6.78802 3.39 6.08711 3.39 5.22438C3.39 4.36165 4.09 3.66165 4.95364 3.66165C5.81545 3.66165 6.51636 4.36256 6.51636 5.22438C6.51636 6.08711 5.81545 6.78802 4.95364 6.78802ZM16.3673 16.6507H13.6873V12.4544C13.6873 11.4535 13.6691 10.1662 12.2936 10.1662C10.8982 10.1662 10.6836 11.2562 10.6836 12.3817V16.6507H8.00364V8.02166H10.5764V9.20075H10.6127C10.9709 8.52256 11.8455 7.80711 13.15 7.80711C15.8655 7.80711 16.3673 9.59438 16.3673 11.918V16.6507Z" fill="#0047AB"/>
</svg>
