<svg width="24" height="24" viewBox="0 0 24 24" fill="none" xmlns="http://www.w3.org/2000/svg">
<path d="M24 6.75C24 7.16421 23.6642 7.5 23.25 7.5H0.75C0.335786 7.5 0 7.16421 0 6.75C0 6.33579 0.335786 6 0.75 6H23.25C23.6642 6 24 6.33579 24 6.75ZM24 18.75C24 19.1642 23.6642 19.5 23.25 19.5H0.75C0.335786 19.5 0 19.1642 0 18.75C0 18.3358 0.335786 18 0.75 18H23.25C23.6642 18 24 18.3358 24 18.75ZM24 12.7441C24 13.1551 23.6668 13.4883 23.2559 13.4883H0.744141C0.333163 13.4883 0 13.1551 0 12.7441C0 12.3332 0.333163 12 0.744141 12H23.2559C23.6668 12 24 12.3332 24 12.7441Z" fill="#0047AB"/>
</svg>
