<svg width="160" height="24" viewBox="0 0 160 24" fill="none" xmlns="http://www.w3.org/2000/svg">
<path d="M12 2L15.09 8.26L22 9.27L17 14.14L18.18 21.02L12 17.77L5.82 21.02L7 14.14L2 9.27L8.91 8.26L12 2Z" fill="#FFC107" stroke="#FFC107" stroke-width="2" stroke-linecap="round" stroke-linejoin="round"/>
<path d="M46 2L49.09 8.26L56 9.27L51 14.14L52.18 21.02L46 17.77L39.82 21.02L41 14.14L36 9.27L42.91 8.26L46 2Z" fill="#FFC107" stroke="#FFC107" stroke-width="2" stroke-linecap="round" stroke-linejoin="round"/>
<path d="M80 2L83.09 8.26L90 9.27L85 14.14L86.18 21.02L80 17.77L73.82 21.02L75 14.14L70 9.27L76.91 8.26L80 2Z" fill="#FFC107" stroke="#FFC107" stroke-width="2" stroke-linecap="round" stroke-linejoin="round"/>
<path d="M114 2L117.09 8.26L124 9.27L119 14.14L120.18 21.02L114 17.77L107.82 21.02L109 14.14L104 9.27L110.91 8.26L114 2Z" fill="#FFC107" stroke="#FFC107" stroke-width="2" stroke-linecap="round" stroke-linejoin="round"/>
<path d="M148 2L151.09 8.26L158 9.27L153 14.14L154.18 21.02L148 17.77L141.82 21.02L143 14.14L138 9.27L144.91 8.26L148 2Z" fill="#FFC107" stroke="#FFC107" stroke-width="2" stroke-linecap="round" stroke-linejoin="round"/>
</svg>
