<svg width="25" height="21" viewBox="0 0 25 21" fill="none" xmlns="http://www.w3.org/2000/svg">
<path d="M24.6117 2.65447C23.7058 3.05676 22.7327 3.32748 21.7114 3.44959C22.7545 2.82485 23.5544 1.83569 23.9311 0.656271C22.9561 1.23462 21.8751 1.6549 20.7241 1.88207C19.8031 0.900484 18.4912 0.287109 17.0391 0.287109C14.2506 0.287109 11.9902 2.54846 11.9902 5.33609C11.9902 5.73176 12.0356 6.11796 12.1208 6.48617C7.92465 6.27603 4.20465 4.26553 1.71329 1.21001C1.27976 1.95591 1.03081 2.82296 1.03081 3.74965C1.03081 5.5008 1.92153 7.04654 3.27607 7.95146C2.44877 7.92495 1.66974 7.69778 0.989162 7.3201C0.989162 7.34187 0.989162 7.36175 0.989162 7.38352C0.989162 9.83039 2.72895 11.8712 5.03952 12.3341C4.6164 12.4495 4.16962 12.5111 3.70865 12.5111C3.38397 12.5111 3.06687 12.4789 2.75924 12.4211C3.40196 14.4269 5.2667 15.8875 7.47598 15.9282C5.7485 17.2827 3.57139 18.0901 1.20498 18.0901C0.797956 18.0901 0.395665 18.0665 0 18.0191C2.23484 19.4513 4.88807 20.2871 7.74007 20.2871C17.0278 20.2871 22.1052 12.5934 22.1052 5.92107C22.1052 5.70241 22.1004 5.4847 22.091 5.26794C23.0782 4.55518 23.9349 3.66635 24.6117 2.65447Z" fill="#0047AB"/>
</svg>
